<?xml version="1.0" encoding="utf-8"?>
<!-- Generator: Adobe Illustrator 24.0.0, SVG Export Plug-In . SVG Version: 6.00 Build 0)  -->
<svg version="1.1" id="Layer_1" xmlns="http://www.w3.org/2000/svg" xmlns:xlink="http://www.w3.org/1999/xlink" x="0px" y="0px"
	 viewBox="0 0 432 288" style="enable-background:new 0 0 432 288;" xml:space="preserve">
<style type="text/css">
	.st0{fill:#FFFFFF;}
	.st1{clip-path:url(#SVGID_2_);fill:#3274A1;}
	.st2{clip-path:url(#SVGID_4_);fill:#E1812C;}
	.st3{clip-path:url(#SVGID_6_);fill:#3A923A;}
	.st4{clip-path:url(#SVGID_8_);fill:#C03D3E;}
	.st5{clip-path:url(#SVGID_10_);fill:#9372B2;}
	.st6{stroke:#000000;stroke-width:0.8;stroke-linejoin:round;}
	.st7{font-family:'MyriadPro-Regular';}
	.st8{font-size:12px;}
	.st9{stroke:#000000;stroke-width:0.6;stroke-linejoin:round;}
	.st10{fill:none;stroke:#000000;stroke-width:0.8;stroke-linecap:square;}
</style>
<g id="figure_1">
	<g id="patch_1">
		<path class="st0" d="M0,288h432V0H0V288z"/>
	</g>
	<g id="axes_1">
		<g id="patch_2">
			<path class="st0" d="M54,252h334.8V34.6H54V252z"/>
		</g>
		<g id="patch_3">
			<g>
				<defs>
					<rect id="SVGID_1_" x="54" y="34.6" width="334.8" height="217.4"/>
				</defs>
				<clipPath id="SVGID_2_">
					<use xlink:href="#SVGID_1_"  style="overflow:visible;"/>
				</clipPath>
				<path class="st1" d="M60.7,72538.3h53.6V44.4H60.7V72538.3z"/>
			</g>
		</g>
		<g id="patch_4">
			<g>
				<defs>
					<rect id="SVGID_3_" x="54" y="34.6" width="334.8" height="217.4"/>
				</defs>
				<clipPath id="SVGID_4_">
					<use xlink:href="#SVGID_3_"  style="overflow:visible;"/>
				</clipPath>
				<path class="st2" d="M127.7,72538.3h53.6V166.9h-53.6V72538.3z"/>
			</g>
		</g>
		<g id="patch_5">
			<g>
				<defs>
					<rect id="SVGID_5_" x="54" y="34.6" width="334.8" height="217.4"/>
				</defs>
				<clipPath id="SVGID_6_">
					<use xlink:href="#SVGID_5_"  style="overflow:visible;"/>
				</clipPath>
				<path class="st3" d="M194.6,72538.3h53.6V133.7h-53.6V72538.3z"/>
			</g>
		</g>
		<g id="patch_6">
			<g>
				<defs>
					<rect id="SVGID_7_" x="54" y="34.6" width="334.8" height="217.4"/>
				</defs>
				<clipPath id="SVGID_8_">
					<use xlink:href="#SVGID_7_"  style="overflow:visible;"/>
				</clipPath>
				<path class="st4" d="M261.6,72538.3h53.6V233.4h-53.6V72538.3z"/>
			</g>
		</g>
		<g id="patch_7">
			<g>
				<defs>
					<rect id="SVGID_9_" x="54" y="34.6" width="334.8" height="217.4"/>
				</defs>
				<clipPath id="SVGID_10_">
					<use xlink:href="#SVGID_9_"  style="overflow:visible;"/>
				</clipPath>
				<path class="st5" d="M328.5,72538.3h53.6V242.1h-53.6V72538.3z"/>
			</g>
		</g>
		<g id="matplotlib.axis_1">
			<g id="xtick_1">
				<g id="line2d_1">
					<g>
						<g>
							<path id="m853fc4aca9" class="st6" d="M87.5,252v3.5"/>
						</g>
					</g>
				</g>
				<g id="text_1">
					<g transform="translate(60.118281 266.598437)scale(0.1 -0.1)">
						<g>
							<path id="DejaVuSans-85" d="M8.7,72.9h9.9V28.6c0-7.8,1.4-13.4,4.2-16.9c2.8-3.4,7.4-5.1,13.8-5.1c6.3,0,10.9,1.7,13.7,5.1
								c2.8,3.4,4.2,9.1,4.2,16.9v44.3h9.9V27.4c0-9.5-2.4-16.7-7.1-21.5C52.7,1,45.8-1.4,36.6-1.4c-9.2,0-16.2,2.4-20.9,7.3
								c-4.7,4.9-7,12-7,21.5V72.9z"/>
						</g>
						<g>
							<path id="DejaVuSans-110" d="M128.1,33V0h-9v32.7c0,5.2-1,9-3,11.6c-2,2.6-5,3.9-9.1,3.9c-4.9,0-8.7-1.5-11.5-4.6
								c-2.8-3.1-4.2-7.3-4.2-12.6V0h-9v54.7h9v-8.5c2.2,3.3,4.7,5.8,7.6,7.4c2.9,1.6,6.3,2.4,10.1,2.4c6.3,0,11-1.9,14.2-5.8
								C126.5,46.3,128.1,40.6,128.1,33z"/>
						</g>
						<g>
							<path id="DejaVuSans-109" d="M188.6,44.2c2.2,4,4.9,7,8.1,8.9s6.8,2.9,11,2.9c5.7,0,10.1-2,13.2-6c3.1-4,4.6-9.6,4.6-17V0h-9
								v32.7c0,5.2-0.9,9.1-2.8,11.7c-1.9,2.5-4.7,3.8-8.5,3.8c-4.7,0-8.3-1.5-11-4.6c-2.7-3.1-4-7.3-4-12.6V0h-9v32.7
								c0,5.3-0.9,9.2-2.8,11.7c-1.9,2.5-4.7,3.8-8.6,3.8c-4.6,0-8.2-1.6-11-4.7c-2.7-3.1-4-7.3-4-12.6V0h-9v54.7h9v-8.5
								c2.1,3.4,4.5,5.8,7.4,7.4c2.9,1.6,6.3,2.4,10.2,2.4c4,0,7.4-1,10.1-3C185.2,51,187.2,48,188.6,44.2z"/>
						</g>
						<g>
							<path id="DejaVuSans-97" d="M268.3,27.5c-7.3,0-12.3-0.8-15.1-2.5c-2.8-1.7-4.2-4.5-4.2-8.5c0-3.2,1.1-5.7,3.2-7.6
								c2.1-1.9,5-2.8,8.6-2.8c5,0,9,1.8,12,5.3c3,3.5,4.5,8.2,4.5,14.1v2H268.3z M286.2,31.2V0h-9v8.3c-2.1-3.3-4.6-5.8-7.7-7.3
								s-6.8-2.4-11.2-2.4c-5.6,0-10,1.6-13.4,4.7c-3.3,3.1-5,7.4-5,12.6c0,6.1,2.1,10.8,6.2,13.9c4.1,3.1,10.3,4.7,18.4,4.7h12.6
								v0.9c0,4.1-1.4,7.3-4.1,9.6s-6.5,3.4-11.5,3.4c-3.1,0-6.2-0.4-9.1-1.1c-3-0.8-5.8-1.9-8.5-3.4v8.3c3.3,1.3,6.5,2.2,9.6,2.8
								c3.1,0.6,6.1,1,9,1c7.9,0,13.8-2.1,17.7-6.2C284.2,45.8,286.2,39.5,286.2,31.2z"/>
						</g>
						<g>
							<path id="DejaVuSans-112" d="M313.4,8.2v-29h-9v75.5h9v-8.3c1.9,3.2,4.3,5.7,7.2,7.2c2.9,1.6,6.3,2.4,10.3,2.4
								c6.6,0,12-2.6,16.2-7.9c4.2-5.3,6.2-12.2,6.2-20.8s-2.1-15.5-6.2-20.8c-4.1-5.3-9.5-7.9-16.2-7.9c-4,0-7.4,0.8-10.3,2.4
								C317.7,2.5,315.3,5,313.4,8.2z M344,27.3c0,6.6-1.4,11.8-4.1,15.5s-6.5,5.6-11.2,5.6c-4.8,0-8.5-1.9-11.2-5.6
								s-4.1-8.9-4.1-15.5s1.4-11.8,4.1-15.5s6.5-5.6,11.2-5.6c4.8,0,8.5,1.9,11.2,5.6S344,20.7,344,27.3z"/>
						</g>
						<g>
							<path id="DejaVuSans-112_1_" d="M376.8,8.2v-29h-9v75.5h9v-8.3c1.9,3.2,4.3,5.7,7.2,7.2c2.9,1.6,6.3,2.4,10.3,2.4
								c6.6,0,12-2.6,16.2-7.9c4.2-5.3,6.2-12.2,6.2-20.8s-2.1-15.5-6.2-20.8c-4.1-5.3-9.5-7.9-16.2-7.9c-4,0-7.4,0.8-10.3,2.4
								C381.1,2.5,378.7,5,376.8,8.2z M407.4,27.3c0,6.6-1.4,11.8-4.1,15.5s-6.5,5.6-11.2,5.6c-4.8,0-8.5-1.9-11.2-5.6
								s-4.1-8.9-4.1-15.5s1.4-11.8,4.1-15.5s6.5-5.6,11.2-5.6c4.8,0,8.5,1.9,11.2,5.6S407.4,20.7,407.4,27.3z"/>
						</g>
						<g>
							<path id="DejaVuSans-101" d="M478.4,29.6v-4.4h-41.3c0.4-6.2,2.3-10.9,5.6-14.1c3.3-3.2,8-4.9,13.9-4.9c3.4,0,6.8,0.4,10,1.3
								c3.2,0.8,6.5,2.1,9.7,3.8V2.8c-3.2-1.4-6.5-2.4-9.9-3.1c-3.4-0.7-6.8-1.1-10.3-1.1c-8.7,0-15.6,2.5-20.7,7.6
								c-5.1,5.1-7.6,12-7.6,20.6c0,8.9,2.4,16,7.2,21.3c4.8,5.3,11.4,7.9,19.6,7.9c7.4,0,13.2-2.4,17.5-7.1
								C476.3,44.2,478.4,37.7,478.4,29.6z M469.4,32.2c-0.1,4.9-1.4,8.8-4.1,11.8c-2.7,2.9-6.2,4.4-10.7,4.4c-5,0-9-1.4-12-4.2
								c-3-2.8-4.7-6.8-5.2-12L469.4,32.2z"/>
						</g>
						<g>
							<path id="DejaVuSans-100" d="M529.1,46.4V76h9V0h-9v8.2C527.3,5,524.9,2.5,522,1c-2.9-1.6-6.3-2.4-10.4-2.4
								c-6.6,0-12,2.6-16.1,7.9c-4.1,5.3-6.2,12.2-6.2,20.8s2.1,15.5,6.2,20.8c4.2,5.3,9.5,7.9,16.1,7.9c4,0,7.5-0.8,10.4-2.4
								C524.9,52.1,527.3,49.6,529.1,46.4z M498.5,27.3c0-6.6,1.4-11.8,4.1-15.5s6.5-5.6,11.2-5.6s8.5,1.9,11.2,5.6
								c2.7,3.8,4.1,8.9,4.1,15.5s-1.4,11.8-4.1,15.5c-2.7,3.8-6.5,5.6-11.2,5.6s-8.5-1.9-11.2-5.6S498.5,33.9,498.5,27.3z"/>
						</g>
					</g>
				</g>
			</g>
			<g id="xtick_2">
				<g id="line2d_2">
					<g>
						<g>
							<path id="m853fc4aca9_1_" class="st6" d="M154.4,252v3.5"/>
						</g>
					</g>
				</g>
			</g>
			<g id="xtick_3">
				<g id="line2d_3">
					<g>
						<g>
							<path id="m853fc4aca9_2_" class="st6" d="M221.4,252v3.5"/>
						</g>
					</g>
				</g>
				<g id="text_2">
					<g transform="translate(199.352344 266.598437)scale(0.1 -0.1)">
						<g>
							<path id="DejaVuSans-66" d="M19.7,34.8V8.1h15.8c5.3,0,9.2,1.1,11.8,3.3c2.6,2.2,3.8,5.6,3.8,10.1c0,4.6-1.3,7.9-3.8,10.1
								c-2.6,2.2-6.5,3.2-11.8,3.2H19.7z M19.7,64.8v-22h14.6c4.8,0,8.4,0.9,10.8,2.7c2.4,1.8,3.5,4.6,3.5,8.3
								c0,3.7-1.2,6.4-3.5,8.2c-2.4,1.8-5.9,2.7-10.8,2.7H19.7z M9.8,72.9H35c7.5,0,13.3-1.6,17.4-4.7c4.1-3.1,6.1-7.6,6.1-13.3
								c0-4.5-1-8-3.1-10.7s-5.1-4.3-9.2-4.9c4.9-1,8.6-3.2,11.3-6.5c2.7-3.3,4-7.4,4-12.4c0-6.5-2.2-11.5-6.6-15.1
								C50.5,1.8,44.2,0,36,0H9.8V72.9z"/>
						</g>
						<g>
							<path id="DejaVuSans-117" d="M77.1,21.6v33.1h9V21.9c0-5.2,1-9.1,3-11.7c2-2.6,5.1-3.9,9.1-3.9c4.8,0,8.7,1.5,11.5,4.6
								c2.8,3.1,4.2,7.3,4.2,12.7v31h9V0h-9v8.4c-2.2-3.3-4.7-5.8-7.6-7.4c-2.9-1.6-6.2-2.4-10-2.4c-6.3,0-11.1,2-14.3,5.9
								C78.7,8.3,77.1,14.1,77.1,21.6z"/>
						</g>
						<g>
							<path id="DejaVuSans-115" d="M176.3,53.1v-8.5c-2.5,1.3-5.2,2.3-7.9,2.9c-2.7,0.7-5.6,1-8.5,1c-4.5,0-7.8-0.7-10-2
								s-3.3-3.4-3.3-6.2c0-2.1,0.8-3.7,2.4-4.9s4.8-2.3,9.6-3.4l3.1-0.7c6.4-1.4,10.9-3.3,13.6-5.8s4-6,4-10.4c0-5.1-2-9.1-6-12.1
								c-4-3-9.5-4.4-16.6-4.4c-2.9,0-6,0.3-9.2,0.9s-6.5,1.4-10,2.6v9.3c3.3-1.7,6.6-3,9.8-3.9c3.2-0.9,6.4-1.3,9.6-1.3
								c4.2,0,7.5,0.7,9.8,2.2c2.3,1.4,3.4,3.5,3.4,6.1c0,2.4-0.8,4.3-2.5,5.6c-1.6,1.3-5.2,2.6-10.8,3.8l-3.1,0.7
								c-5.6,1.2-9.6,3-12.1,5.4c-2.5,2.4-3.7,5.8-3.7,10c0,5.1,1.8,9.1,5.5,11.9c3.6,2.8,8.8,4.2,15.5,4.2c3.3,0,6.4-0.2,9.4-0.7
								C171.1,54.8,173.8,54.1,176.3,53.1z"/>
						</g>
						<g>
							<path id="DejaVuSans-105" d="M193.5,54.7h9V0h-9V54.7z M193.5,76h9V64.6h-9V76z"/>
						</g>
						<g>
							<path id="DejaVuSans-110_1_" d="M266.8,33V0h-9v32.7c0,5.2-1,9-3,11.6c-2,2.6-5,3.9-9.1,3.9c-4.9,0-8.7-1.5-11.5-4.6
								c-2.8-3.1-4.2-7.3-4.2-12.6V0h-9v54.7h9v-8.5c2.2,3.3,4.7,5.8,7.6,7.4c2.9,1.6,6.3,2.4,10.1,2.4c6.3,0,11-1.9,14.2-5.8
								C265.1,46.3,266.8,40.6,266.8,33z"/>
						</g>
						<g>
							<path id="DejaVuSans-101_1_" d="M331.4,29.6v-4.4h-41.3c0.4-6.2,2.3-10.9,5.6-14.1s8-4.9,13.9-4.9c3.4,0,6.8,0.4,10,1.3
								s6.5,2.1,9.7,3.8V2.8c-3.2-1.4-6.5-2.4-9.9-3.1s-6.8-1.1-10.3-1.1c-8.7,0-15.6,2.5-20.7,7.6c-5.1,5.1-7.6,12-7.6,20.6
								c0,8.9,2.4,16,7.2,21.3c4.8,5.3,11.4,7.9,19.6,7.9c7.4,0,13.2-2.4,17.5-7.1C329.3,44.2,331.4,37.7,331.4,29.6z M322.5,32.2
								c-0.1,4.9-1.4,8.8-4.1,11.8c-2.7,2.9-6.2,4.4-10.7,4.4c-5,0-9-1.4-12-4.2s-4.7-6.8-5.2-12L322.5,32.2z"/>
						</g>
						<g>
							<path id="DejaVuSans-115_1_" d="M381,53.1v-8.5c-2.5,1.3-5.2,2.3-7.9,2.9c-2.7,0.7-5.6,1-8.5,1c-4.5,0-7.8-0.7-10-2
								s-3.3-3.4-3.3-6.2c0-2.1,0.8-3.7,2.4-4.9s4.8-2.3,9.6-3.4l3.1-0.7c6.4-1.4,10.9-3.3,13.6-5.8s4-6,4-10.4c0-5.1-2-9.1-6-12.1
								c-4-3-9.5-4.4-16.6-4.4c-2.9,0-6,0.3-9.2,0.9s-6.5,1.4-10,2.6v9.3c3.3-1.7,6.6-3,9.8-3.9c3.2-0.9,6.4-1.3,9.6-1.3
								c4.2,0,7.5,0.7,9.8,2.2c2.3,1.4,3.4,3.5,3.4,6.1c0,2.4-0.8,4.3-2.5,5.6c-1.6,1.3-5.2,2.6-10.8,3.8l-3.1,0.7
								c-5.6,1.2-9.6,3-12.1,5.4c-2.5,2.4-3.7,5.8-3.7,10c0,5.1,1.8,9.1,5.5,11.9c3.6,2.8,8.8,4.2,15.5,4.2c3.3,0,6.4-0.2,9.4-0.7
								C375.9,54.8,378.6,54.1,381,53.1z"/>
						</g>
						<g>
							<path id="DejaVuSans-115_2_" d="M433.1,53.1v-8.5c-2.5,1.3-5.2,2.3-7.9,2.9c-2.7,0.7-5.6,1-8.5,1c-4.5,0-7.8-0.7-10-2
								s-3.3-3.4-3.3-6.2c0-2.1,0.8-3.7,2.4-4.9s4.8-2.3,9.6-3.4l3.1-0.7c6.4-1.4,10.9-3.3,13.6-5.8s4-6,4-10.4c0-5.1-2-9.1-6-12.1
								c-4-3-9.5-4.4-16.6-4.4c-2.9,0-6,0.3-9.2,0.9s-6.5,1.4-10,2.6v9.3c3.3-1.7,6.6-3,9.8-3.9c3.2-0.9,6.4-1.3,9.6-1.3
								c4.2,0,7.5,0.7,9.8,2.2c2.3,1.4,3.4,3.5,3.4,6.1c0,2.4-0.8,4.3-2.5,5.6c-1.6,1.3-5.2,2.6-10.8,3.8l-3.1,0.7
								c-5.6,1.2-9.6,3-12.1,5.4c-2.5,2.4-3.7,5.8-3.7,10c0,5.1,1.8,9.1,5.5,11.9c3.6,2.8,8.8,4.2,15.5,4.2c3.3,0,6.4-0.2,9.4-0.7
								C428,54.8,430.7,54.1,433.1,53.1z"/>
						</g>
					</g>
				</g>
			</g>
			<g id="xtick_4">
				<g id="line2d_4">
					<g>
						<g>
							<path id="m853fc4aca9_3_" class="st6" d="M288.4,252v3.5"/>
						</g>
					</g>
				</g>
				<g id="text_3">
					<g transform="translate(264.008438 266.598437)scale(0.1 -0.1)">
						<g>
							<path id="DejaVuSans-73" d="M9.8,72.9h9.9V0H9.8V72.9z"/>
						</g>
						<g>
							<path id="DejaVuSans-110_2_" d="M84.4,33V0h-9v32.7c0,5.2-1,9-3,11.6c-2,2.6-5,3.9-9.1,3.9c-4.9,0-8.7-1.5-11.5-4.6
								c-2.8-3.1-4.2-7.3-4.2-12.6V0h-9v54.7h9v-8.5c2.2,3.3,4.7,5.8,7.6,7.4c2.9,1.6,6.3,2.4,10.1,2.4c6.3,0,11-1.9,14.2-5.8
								C82.8,46.3,84.4,40.6,84.4,33z"/>
						</g>
						<g>
							<path id="DejaVuSans-100_1_" d="M138.3,46.4V76h9V0h-9v8.2C136.4,5,134,2.5,131.1,1c-2.9-1.6-6.3-2.4-10.4-2.4
								c-6.6,0-12,2.6-16.1,7.9c-4.1,5.3-6.2,12.2-6.2,20.8s2.1,15.5,6.2,20.8c4.2,5.3,9.5,7.9,16.1,7.9c4,0,7.5-0.8,10.4-2.4
								C134,52.1,136.4,49.6,138.3,46.4z M107.7,27.3c0-6.6,1.4-11.8,4.1-15.5s6.5-5.6,11.2-5.6s8.5,1.9,11.2,5.6
								c2.7,3.8,4.1,8.9,4.1,15.5s-1.4,11.8-4.1,15.5c-2.7,3.8-6.5,5.6-11.2,5.6s-8.5-1.9-11.2-5.6S107.7,33.9,107.7,27.3z"/>
						</g>
						<g>
							<path id="DejaVuSans-105_1_" d="M165.8,54.7h9V0h-9V54.7z M165.8,76h9V64.6h-9V76z"/>
						</g>
						<g>
							<path id="DejaVuSans-118" d="M187.1,54.7h9.5l17.1-45.9l17.1,45.9h9.5L219.8,0h-12.2L187.1,54.7z"/>
						</g>
						<g>
							<path id="DejaVuSans-105_2_" d="M252.7,54.7h9V0h-9V54.7z M252.7,76h9V64.6h-9V76z"/>
						</g>
						<g>
							<path id="DejaVuSans-100_2_" d="M316.5,46.4V76h9V0h-9v8.2c-1.9-3.2-4.3-5.7-7.2-7.2c-2.9-1.6-6.3-2.4-10.4-2.4
								c-6.6,0-12,2.6-16.1,7.9c-4.1,5.3-6.2,12.2-6.2,20.8s2.1,15.5,6.2,20.8c4.2,5.3,9.5,7.9,16.1,7.9c4,0,7.5-0.8,10.4-2.4
								C312.2,52.1,314.6,49.6,316.5,46.4z M285.9,27.3c0-6.6,1.4-11.8,4.1-15.5s6.5-5.6,11.2-5.6s8.5,1.9,11.2,5.6
								c2.7,3.8,4.1,8.9,4.1,15.5s-1.4,11.8-4.1,15.5c-2.7,3.8-6.5,5.6-11.2,5.6s-8.5-1.9-11.2-5.6S285.9,33.9,285.9,27.3z"/>
						</g>
						<g>
							<path id="DejaVuSans-117_1_" d="M343.1,21.6v33.1h9V21.9c0-5.2,1-9.1,3-11.7c2-2.6,5.1-3.9,9.1-3.9c4.8,0,8.7,1.5,11.5,4.6
								c2.8,3.1,4.2,7.3,4.2,12.7v31h9V0h-9v8.4c-2.2-3.3-4.7-5.8-7.6-7.4c-2.9-1.6-6.2-2.4-10-2.4c-6.3,0-11.1,2-14.3,5.9
								C344.7,8.3,343.1,14.1,343.1,21.6z"/>
						</g>
						<g>
							<path id="DejaVuSans-97_1_" d="M432.2,27.5c-7.3,0-12.3-0.8-15.1-2.5s-4.2-4.5-4.2-8.5c0-3.2,1.1-5.7,3.2-7.6
								c2.1-1.9,5-2.8,8.6-2.8c5,0,9,1.8,12,5.3c3,3.5,4.5,8.2,4.5,14.1v2H432.2z M450.2,31.2V0h-9v8.3c-2.1-3.3-4.6-5.8-7.7-7.3
								s-6.8-2.4-11.2-2.4c-5.6,0-10,1.6-13.4,4.7c-3.3,3.1-5,7.4-5,12.6c0,6.1,2.1,10.8,6.2,13.9c4.1,3.1,10.3,4.7,18.4,4.7h12.6
								v0.9c0,4.1-1.4,7.3-4.1,9.6s-6.5,3.4-11.5,3.4c-3.1,0-6.2-0.4-9.1-1.1c-3-0.8-5.8-1.9-8.5-3.4v8.3c3.3,1.3,6.5,2.2,9.6,2.8
								c3.1,0.6,6.1,1,9,1c7.9,0,13.8-2.1,17.7-6.2C448.2,45.8,450.2,39.5,450.2,31.2z"/>
						</g>
						<g>
							<path id="DejaVuSans-108" d="M468.7,76h9V0h-9V76z"/>
						</g>
					</g>
				</g>
			</g>
			<g id="xtick_5">
				<g id="line2d_5">
					<g>
						<g>
							<path id="m853fc4aca9_4_" class="st6" d="M355.3,252v3.5"/>
						</g>
					</g>
				</g>
				<g id="text_4">
					<g transform="translate(324.05125 266.598437)scale(0.1 -0.1)">
						<g>
							<path id="DejaVuSans-71" d="M59.5,10.4V30H43.4v8.1h25.9V6.8c-3.8-2.7-8-4.7-12.6-6.1C52.1-0.7,47.2-1.4,42-1.4
								c-11.4,0-20.3,3.3-26.8,10c-6.4,6.7-9.6,15.9-9.6,27.8c0,11.9,3.2,21.2,9.6,27.9c6.4,6.7,15.4,10,26.8,10
								c4.8,0,9.3-0.6,13.5-1.8c4.3-1.2,8.2-2.9,11.8-5.2V56.8c-3.6,3.1-7.5,5.4-11.6,7c-4.1,1.6-8.4,2.3-12.9,2.3
								c-8.9,0-15.6-2.5-20.1-7.5c-4.5-5-6.7-12.4-6.7-22.3c0-9.8,2.2-17.2,6.7-22.2c4.5-5,11.2-7.5,20.1-7.5c3.5,0,6.6,0.3,9.3,0.9
								C54.9,8.2,57.3,9.1,59.5,10.4z"/>
						</g>
						<g>
							<path id="DejaVuSans-111" d="M108.1,48.4c-4.8,0-8.6-1.9-11.4-5.6s-4.2-8.9-4.2-15.5s1.4-11.7,4.2-15.5
								c2.8-3.8,6.6-5.6,11.5-5.6c4.8,0,8.6,1.9,11.4,5.7c2.8,3.8,4.2,8.9,4.2,15.4c0,6.5-1.4,11.6-4.2,15.4
								C116.7,46.5,112.9,48.4,108.1,48.4z M108.1,56c7.8,0,13.9-2.5,18.4-7.6c4.5-5.1,6.7-12.1,6.7-21.1c0-8.9-2.2-16-6.7-21.1
								c-4.5-5.1-10.6-7.6-18.4-7.6c-7.8,0-14,2.5-18.4,7.6C85.2,11.3,83,18.3,83,27.3c0,9,2.2,16,6.7,21.1
								C94.1,53.5,100.3,56,108.1,56z"/>
						</g>
						<g>
							<path id="DejaVuSans-118_1_" d="M141.7,54.7h9.5l17.1-45.9l17.1,45.9h9.5L174.4,0h-12.2L141.7,54.7z"/>
						</g>
						<g>
							<path id="DejaVuSans-101_2_" d="M254.1,29.6v-4.4h-41.3c0.4-6.2,2.3-10.9,5.6-14.1c3.3-3.2,8-4.9,13.9-4.9
								c3.4,0,6.8,0.4,10,1.3s6.5,2.1,9.7,3.8V2.8c-3.2-1.4-6.5-2.4-9.9-3.1s-6.8-1.1-10.3-1.1c-8.7,0-15.6,2.5-20.7,7.6
								c-5.1,5.1-7.6,12-7.6,20.6c0,8.9,2.4,16,7.2,21.3c4.8,5.3,11.4,7.9,19.6,7.9c7.4,0,13.2-2.4,17.5-7.1
								C251.9,44.2,254.1,37.7,254.1,29.6z M245.1,32.2c-0.1,4.9-1.4,8.8-4.1,11.8c-2.7,2.9-6.2,4.4-10.7,4.4c-5,0-9-1.4-12-4.2
								c-3-2.8-4.7-6.8-5.2-12L245.1,32.2z"/>
						</g>
						<g>
							<path id="DejaVuSans-114" d="M300.5,46.3c-1,0.6-2.1,1-3.3,1.3c-1.2,0.3-2.5,0.4-3.9,0.4c-5.1,0-9-1.7-11.7-5
								s-4.1-8-4.1-14.2V0h-9v54.7h9v-8.5c1.9,3.3,4.4,5.8,7.4,7.4c3,1.6,6.7,2.4,11,2.4c0.6,0,1.3,0,2-0.1c0.8-0.1,1.6-0.2,2.5-0.4
								L300.5,46.3z"/>
						</g>
						<g>
							<path id="DejaVuSans-110_3_" d="M355.4,33V0h-9v32.7c0,5.2-1,9-3,11.6c-2,2.6-5,3.9-9.1,3.9c-4.9,0-8.7-1.5-11.5-4.6
								c-2.8-3.1-4.2-7.3-4.2-12.6V0h-9v54.7h9v-8.5c2.2,3.3,4.7,5.8,7.6,7.4c2.9,1.6,6.3,2.4,10.1,2.4c6.3,0,11-1.9,14.2-5.8
								C353.7,46.3,355.4,40.6,355.4,33z"/>
						</g>
						<g>
							<path id="DejaVuSans-109_1_" d="M415.9,44.2c2.2,4,4.9,7,8.1,8.9s6.8,2.9,11,2.9c5.7,0,10.1-2,13.2-6c3.1-4,4.6-9.6,4.6-17V0
								h-9v32.7c0,5.2-0.9,9.1-2.8,11.7c-1.9,2.5-4.7,3.8-8.5,3.8c-4.7,0-8.3-1.5-11-4.6c-2.7-3.1-4-7.3-4-12.6V0h-9v32.7
								c0,5.3-0.9,9.2-2.8,11.7c-1.9,2.5-4.7,3.8-8.6,3.8c-4.6,0-8.2-1.6-11-4.7c-2.7-3.1-4-7.3-4-12.6V0h-9v54.7h9v-8.5
								c2.1,3.4,4.5,5.8,7.4,7.4c2.9,1.6,6.3,2.4,10.2,2.4c4,0,7.4-1,10.1-3C412.5,51,414.5,48,415.9,44.2z"/>
						</g>
						<g>
							<path id="DejaVuSans-101_3_" d="M517.5,29.6v-4.4h-41.3c0.4-6.2,2.3-10.9,5.6-14.1c3.3-3.2,8-4.9,13.9-4.9
								c3.4,0,6.8,0.4,10,1.3c3.2,0.8,6.5,2.1,9.7,3.8V2.8c-3.2-1.4-6.5-2.4-9.9-3.1c-3.4-0.7-6.8-1.1-10.3-1.1
								c-8.7,0-15.6,2.5-20.7,7.6c-5.1,5.1-7.6,12-7.6,20.6c0,8.9,2.4,16,7.2,21.3c4.8,5.3,11.4,7.9,19.6,7.9
								c7.4,0,13.2-2.4,17.5-7.1C515.3,44.2,517.5,37.7,517.5,29.6z M508.5,32.2c-0.1,4.9-1.4,8.8-4.1,11.8
								c-2.7,2.9-6.2,4.4-10.7,4.4c-5,0-9-1.4-12-4.2c-3-2.8-4.7-6.8-5.2-12L508.5,32.2z"/>
						</g>
						<g>
							<path id="DejaVuSans-110_4_" d="M577.7,33V0h-9v32.7c0,5.2-1,9-3,11.6c-2,2.6-5,3.9-9.1,3.9c-4.9,0-8.7-1.5-11.5-4.6
								c-2.8-3.1-4.2-7.3-4.2-12.6V0h-9v54.7h9v-8.5c2.2,3.3,4.7,5.8,7.6,7.4c2.9,1.6,6.3,2.4,10.1,2.4c6.3,0,11-1.9,14.2-5.8
								C576.1,46.3,577.7,40.6,577.7,33z"/>
						</g>
						<g>
							<path id="DejaVuSans-116" d="M604.5,70.2V54.7H623v-7h-18.5V18c0-4.5,0.6-7.3,1.8-8.6s3.7-1.9,7.5-1.9h9.2V0h-9.2
								c-6.9,0-11.7,1.3-14.4,3.9c-2.6,2.6-4,7.3-4,14.1v29.7h-6.6v7h6.6v15.5H604.5z"/>
						</g>
					</g>
				</g>
			</g>
			<g id="text_5">
				<g transform="translate(184.491406 280.276563)scale(0.1 -0.1)">
					<g>
						<path id="DejaVuSans-65" d="M34.2,63.2L20.8,26.9h26.8L34.2,63.2z M28.6,72.9h11.2L67.6,0H57.3l-6.6,18.7H17.8L11.2,0H0.8
							L28.6,72.9z"/>
					</g>
					<g>
						<path id="DejaVuSans-102" d="M105.5,76v-7.5h-8.6c-3.2,0-5.5-0.7-6.7-2c-1.2-1.3-1.9-3.6-1.9-7v-4.8h14.8v-7H88.3V0h-9v47.7
							h-8.6v7h8.6v3.8c0,6.1,1.4,10.5,4.2,13.3C86.3,74.6,90.8,76,97,76H105.5z"/>
					</g>
					<g>
						<path id="DejaVuSans-105_3_" d="M113,54.7h9V0h-9V54.7z M113,76h9V64.6h-9V76z"/>
					</g>
					<g>
						<path id="DejaVuSans-108_1_" d="M140.8,76h9V0h-9V76z"/>
					</g>
					<g>
						<path id="DejaVuSans-105_4_" d="M168.6,54.7h9V0h-9V54.7z M168.6,76h9V64.6h-9V76z"/>
					</g>
					<g>
						<path id="DejaVuSans-97_2_" d="M221.2,27.5c-7.3,0-12.3-0.8-15.1-2.5c-2.8-1.7-4.2-4.5-4.2-8.5c0-3.2,1.1-5.7,3.2-7.6
							c2.1-1.9,5-2.8,8.6-2.8c5,0,9,1.8,12,5.3c3,3.5,4.5,8.2,4.5,14.1v2H221.2z M239.1,31.2V0h-9v8.3c-2.1-3.3-4.6-5.8-7.7-7.3
							s-6.8-2.4-11.2-2.4c-5.6,0-10,1.6-13.4,4.7c-3.3,3.1-5,7.4-5,12.6c0,6.1,2.1,10.8,6.2,13.9c4.1,3.1,10.3,4.7,18.4,4.7h12.6
							v0.9c0,4.1-1.4,7.3-4.1,9.6s-6.5,3.4-11.5,3.4c-3.1,0-6.2-0.4-9.1-1.1c-3-0.8-5.8-1.9-8.5-3.4v8.3c3.3,1.3,6.5,2.2,9.6,2.8
							c3.1,0.6,6.1,1,9,1c7.9,0,13.8-2.1,17.7-6.2C237.2,45.7,239.1,39.5,239.1,31.2z"/>
					</g>
					<g>
						<path id="DejaVuSans-116_1_" d="M266.5,70.2V54.7H285v-7h-18.5V18c0-4.5,0.6-7.3,1.8-8.6s3.7-1.9,7.5-1.9h9.2V0h-9.2
							c-6.9,0-11.7,1.3-14.4,3.9c-2.6,2.6-4,7.3-4,14.1v29.7h-6.6v7h6.6v15.5H266.5z"/>
					</g>
					<g>
						<path id="DejaVuSans-105_5_" d="M296.8,54.7h9V0h-9V54.7z M296.8,76h9V64.6h-9V76z"/>
					</g>
					<g>
						<path id="DejaVuSans-111_1_" d="M345.8,48.4c-4.8,0-8.6-1.9-11.4-5.6c-2.8-3.8-4.2-8.9-4.2-15.5s1.4-11.7,4.2-15.5
							c2.8-3.8,6.6-5.6,11.5-5.6c4.8,0,8.6,1.9,11.4,5.7c2.8,3.8,4.2,8.9,4.2,15.4c0,6.5-1.4,11.6-4.2,15.4
							C354.4,46.5,350.6,48.4,345.8,48.4z M345.8,56c7.8,0,13.9-2.5,18.4-7.6c4.5-5.1,6.7-12.1,6.7-21.1c0-8.9-2.2-16-6.7-21.1
							c-4.5-5.1-10.6-7.6-18.4-7.6c-7.8,0-14,2.5-18.4,7.6c-4.4,5.1-6.7,12.1-6.7,21.1c0,9,2.2,16,6.7,21.1
							C331.8,53.5,338,56,345.8,56z"/>
					</g>
					<g>
						<path id="DejaVuSans-110_5_" d="M431.3,33V0h-9v32.7c0,5.2-1,9-3,11.6c-2,2.6-5,3.9-9.1,3.9c-4.9,0-8.7-1.5-11.5-4.6
							c-2.8-3.1-4.2-7.3-4.2-12.6V0h-9v54.7h9v-8.5c2.2,3.3,4.7,5.8,7.6,7.4c2.9,1.6,6.3,2.4,10.1,2.4c6.3,0,11-1.9,14.2-5.8
							C429.6,46.3,431.3,40.6,431.3,33z"/>
					</g>
					<g>
						<path id="DejaVuSans-83" d="M493.3,70.5v-9.6c-3.7,1.8-7.3,3.1-10.6,4c-3.3,0.9-6.5,1.3-9.6,1.3c-5.4,0-9.5-1-12.4-3.1
							c-2.9-2.1-4.4-5-4.4-8.9c0-3.2,1-5.7,2.9-7.3c1.9-1.6,5.6-3,11-4l6-1.2c7.4-1.4,12.8-3.9,16.3-7.4s5.2-8.3,5.2-14.2
							c0-7.1-2.4-12.4-7.1-16.1c-4.7-3.6-11.7-5.5-20.8-5.5c-3.4,0-7.1,0.4-11,1.2c-3.9,0.8-7.9,1.9-12.1,3.5v10.2
							c4-2.2,7.9-3.9,11.8-5.1c3.8-1.1,7.6-1.7,11.3-1.7c5.6,0,10,1.1,13,3.3c3.1,2.2,4.6,5.4,4.6,9.5c0,3.6-1.1,6.4-3.3,8.4
							c-2.2,2-5.8,3.5-10.8,4.5l-6,1.2c-7.4,1.5-12.7,3.8-16,6.9c-3.3,3.1-4.9,7.5-4.9,13c0,6.4,2.3,11.5,6.8,15.2
							c4.5,3.7,10.8,5.6,18.8,5.6c3.4,0,6.9-0.3,10.5-0.9C485.9,72.7,489.6,71.7,493.3,70.5z"/>
					</g>
					<g>
						<path id="DejaVuSans-116_2_" d="M521.5,70.2V54.7H540v-7h-18.5V18c0-4.5,0.6-7.3,1.8-8.6s3.7-1.9,7.5-1.9h9.2V0h-9.2
							c-6.9,0-11.7,1.3-14.4,3.9c-2.6,2.6-4,7.3-4,14.1v29.7h-6.6v7h6.6v15.5H521.5z"/>
					</g>
					<g>
						<path id="DejaVuSans-114_1_" d="M583.5,46.3c-1,0.6-2.1,1-3.3,1.3c-1.2,0.3-2.5,0.4-3.9,0.4c-5.1,0-9-1.7-11.7-5
							s-4.1-8-4.1-14.2V0h-9v54.7h9v-8.5c1.9,3.3,4.4,5.8,7.4,7.4c3,1.6,6.7,2.4,11,2.4c0.6,0,1.3,0,2-0.1c0.8-0.1,1.6-0.2,2.5-0.4
							L583.5,46.3z"/>
					</g>
					<g>
						<path id="DejaVuSans-105_6_" d="M593,54.7h9V0h-9V54.7z M593,76h9V64.6h-9V76z"/>
					</g>
					<g>
						<path id="DejaVuSans-110_6_" d="M666.2,33V0h-9v32.7c0,5.2-1,9-3,11.6c-2,2.6-5,3.9-9.1,3.9c-4.9,0-8.7-1.5-11.5-4.6
							c-2.8-3.1-4.2-7.3-4.2-12.6V0h-9v54.7h9v-8.5c2.2,3.3,4.7,5.8,7.6,7.4c2.9,1.6,6.3,2.4,10.1,2.4c6.3,0,11-1.9,14.2-5.8
							C664.6,46.3,666.2,40.6,666.2,33z"/>
					</g>
					<g>
						<path id="DejaVuSans-103" d="M720.1,28c0,6.5-1.3,11.6-4,15.1c-2.7,3.6-6.4,5.4-11.3,5.4c-4.8,0-8.6-1.8-11.2-5.4
							c-2.7-3.6-4-8.6-4-15.1c0-6.5,1.3-11.5,4-15.1s6.4-5.4,11.2-5.4c4.9,0,8.6,1.8,11.3,5.4C718.8,16.5,720.1,21.5,720.1,28z
							 M729.1,6.8c0-9.3-2.1-16.2-6.2-20.8c-4.1-4.5-10.5-6.8-19-6.8c-3.2,0-6.1,0.2-8.9,0.7c-2.8,0.5-5.5,1.2-8.2,2.2v8.7
							c2.6-1.4,5.2-2.5,7.8-3.2c2.6-0.7,5.2-1,7.9-1c5.9,0,10.3,1.5,13.2,4.6c2.9,3.1,4.4,7.7,4.4,13.9v4.5
							c-1.9-3.2-4.2-5.6-7.1-7.2c-2.9-1.6-6.4-2.4-10.4-2.4c-6.7,0-12.1,2.6-16.2,7.7c-4.1,5.1-6.2,11.9-6.2,20.3
							c0,8.5,2.1,15.2,6.2,20.3c4.1,5.1,9.5,7.7,16.2,7.7c4,0,7.5-0.8,10.4-2.4c2.9-1.6,5.3-4,7.1-7.2v8.3h9V6.8z"/>
					</g>
				</g>
			</g>
			<g id="xtick_1_1_">
				<g id="line2d_1_1_">
					<g>
						<g>
							<path id="m853fc4aca9_5_" class="st6" d="M154.3,251.8v3.5"/>
						</g>
					</g>
				</g>
				<g id="xtick_1_2_">
					<g id="line2d_1_2_">
						<g>
							<g>
								<path id="m853fc4aca9_6_" class="st6" d="M87.5,252v3.5"/>
							</g>
						</g>
					</g>
					<g id="text_1_2_">
						<g transform="translate(60.118281 266.598437)scale(0.1 -0.1)">
							<g>
								<path id="DejaVuSans-85_1_" d="M8.7,72.9h9.9V28.6c0-7.8,1.4-13.4,4.2-16.9c2.8-3.4,7.4-5.1,13.8-5.1
									c6.3,0,10.9,1.7,13.7,5.1c2.8,3.4,4.2,9.1,4.2,16.9v44.3h9.9V27.4c0-9.5-2.4-16.7-7.1-21.5C52.7,1,45.8-1.4,36.6-1.4
									c-9.2,0-16.2,2.4-20.9,7.3c-4.7,4.9-7,12-7,21.5V72.9z"/>
							</g>
							<g>
								<path id="DejaVuSans-110_8_" d="M128.1,33V0h-9v32.7c0,5.2-1,9-3,11.6c-2,2.6-5,3.9-9.1,3.9c-4.9,0-8.7-1.5-11.5-4.6
									c-2.8-3.1-4.2-7.3-4.2-12.6V0h-9v54.7h9v-8.5c2.2,3.3,4.7,5.8,7.6,7.4c2.9,1.6,6.3,2.4,10.1,2.4c6.3,0,11-1.9,14.2-5.8
									C126.5,46.3,128.1,40.6,128.1,33z"/>
							</g>
							<g>
								<path id="DejaVuSans-109_2_" d="M188.6,44.2c2.2,4,4.9,7,8.1,8.9s6.8,2.9,11,2.9c5.7,0,10.1-2,13.2-6c3.1-4,4.6-9.6,4.6-17
									V0h-9v32.7c0,5.2-0.9,9.1-2.8,11.7c-1.9,2.5-4.7,3.8-8.5,3.8c-4.7,0-8.3-1.5-11-4.6c-2.7-3.1-4-7.3-4-12.6V0h-9v32.7
									c0,5.3-0.9,9.2-2.8,11.7c-1.9,2.5-4.7,3.8-8.6,3.8c-4.6,0-8.2-1.6-11-4.7c-2.7-3.1-4-7.3-4-12.6V0h-9v54.7h9v-8.5
									c2.1,3.4,4.5,5.8,7.4,7.4c2.9,1.6,6.3,2.4,10.2,2.4c4,0,7.4-1,10.1-3C185.2,51,187.2,48,188.6,44.2z"/>
							</g>
							<g>
								<path id="DejaVuSans-97_3_" d="M268.3,27.5c-7.3,0-12.3-0.8-15.1-2.5c-2.8-1.7-4.2-4.5-4.2-8.5c0-3.2,1.1-5.7,3.2-7.6
									c2.1-1.9,5-2.8,8.6-2.8c5,0,9,1.8,12,5.3c3,3.5,4.5,8.2,4.5,14.1v2H268.3z M286.2,31.2V0h-9v8.3c-2.1-3.3-4.6-5.8-7.7-7.3
									s-6.8-2.4-11.2-2.4c-5.6,0-10,1.6-13.4,4.7c-3.3,3.1-5,7.4-5,12.6c0,6.1,2.1,10.8,6.2,13.9c4.1,3.1,10.3,4.7,18.4,4.7h12.6
									v0.9c0,4.1-1.4,7.3-4.1,9.6s-6.5,3.4-11.5,3.4c-3.1,0-6.2-0.4-9.1-1.1c-3-0.8-5.8-1.9-8.5-3.4v8.3c3.3,1.3,6.5,2.2,9.6,2.8
									c3.1,0.6,6.1,1,9,1c7.9,0,13.8-2.1,17.7-6.2C284.2,45.8,286.2,39.5,286.2,31.2z"/>
							</g>
							<g>
								<path id="DejaVuSans-112_3_" d="M313.4,8.2v-29h-9v75.5h9v-8.3c1.9,3.2,4.3,5.7,7.2,7.2c2.9,1.6,6.3,2.4,10.3,2.4
									c6.6,0,12-2.6,16.2-7.9c4.2-5.3,6.2-12.2,6.2-20.8s-2.1-15.5-6.2-20.8c-4.1-5.3-9.5-7.9-16.2-7.9c-4,0-7.4,0.8-10.3,2.4
									C317.7,2.5,315.3,5,313.4,8.2z M344,27.3c0,6.6-1.4,11.8-4.1,15.5s-6.5,5.6-11.2,5.6c-4.8,0-8.5-1.9-11.2-5.6
									s-4.1-8.9-4.1-15.5s1.4-11.8,4.1-15.5s6.5-5.6,11.2-5.6c4.8,0,8.5,1.9,11.2,5.6S344,20.7,344,27.3z"/>
							</g>
							<g>
								<path id="DejaVuSans-112_2_" d="M376.8,8.2v-29h-9v75.5h9v-8.3c1.9,3.2,4.3,5.7,7.2,7.2c2.9,1.6,6.3,2.4,10.3,2.4
									c6.6,0,12-2.6,16.2-7.9c4.2-5.3,6.2-12.2,6.2-20.8s-2.1-15.5-6.2-20.8c-4.1-5.3-9.5-7.9-16.2-7.9c-4,0-7.4,0.8-10.3,2.4
									C381.1,2.5,378.7,5,376.8,8.2z M407.4,27.3c0,6.6-1.4,11.8-4.1,15.5s-6.5,5.6-11.2,5.6c-4.8,0-8.5-1.9-11.2-5.6
									s-4.1-8.9-4.1-15.5s1.4-11.8,4.1-15.5s6.5-5.6,11.2-5.6c4.8,0,8.5,1.9,11.2,5.6S407.4,20.7,407.4,27.3z"/>
							</g>
							<g>
								<path id="DejaVuSans-101_4_" d="M478.4,29.6v-4.4h-41.3c0.4-6.2,2.3-10.9,5.6-14.1c3.3-3.2,8-4.9,13.9-4.9
									c3.4,0,6.8,0.4,10,1.3c3.2,0.8,6.5,2.1,9.7,3.8V2.8c-3.2-1.4-6.5-2.4-9.9-3.1c-3.4-0.7-6.8-1.1-10.3-1.1
									c-8.7,0-15.6,2.5-20.7,7.6c-5.1,5.1-7.6,12-7.6,20.6c0,8.9,2.4,16,7.2,21.3c4.8,5.3,11.4,7.9,19.6,7.9
									c7.4,0,13.2-2.4,17.5-7.1C476.3,44.2,478.4,37.7,478.4,29.6z M469.4,32.2c-0.1,4.9-1.4,8.8-4.1,11.8
									c-2.7,2.9-6.2,4.4-10.7,4.4c-5,0-9-1.4-12-4.2c-3-2.8-4.7-6.8-5.2-12L469.4,32.2z"/>
							</g>
							<g>
								<path id="DejaVuSans-100_3_" d="M529.1,46.4V76h9V0h-9v8.2C527.3,5,524.9,2.5,522,1c-2.9-1.6-6.3-2.4-10.4-2.4
									c-6.6,0-12,2.6-16.1,7.9c-4.1,5.3-6.2,12.2-6.2,20.8s2.1,15.5,6.2,20.8c4.2,5.3,9.5,7.9,16.1,7.9c4,0,7.5-0.8,10.4-2.4
									C524.9,52.1,527.3,49.6,529.1,46.4z M498.5,27.3c0-6.6,1.4-11.8,4.1-15.5s6.5-5.6,11.2-5.6s8.5,1.9,11.2,5.6
									c2.7,3.8,4.1,8.9,4.1,15.5s-1.4,11.8-4.1,15.5c-2.7,3.8-6.5,5.6-11.2,5.6s-8.5-1.9-11.2-5.6S498.5,33.9,498.5,27.3z"/>
							</g>
						</g>
					</g>
				</g>
				<g id="text_1_1_">
					<text transform="matrix(1 0 0 1 129.2259 266.6779)" class="st7 st8">Academic</text>
				</g>
			</g>
		</g>
		<g id="matplotlib.axis_2">
			<g id="ytick_1">
				<g id="line2d_6">
					<g>
						<g>
							<path id="m53409c29d4" class="st6" d="M54,209.9h-3.5"/>
						</g>
					</g>
				</g>
				<g id="text_6">
					<g transform="translate(29.4 213.715988)scale(0.1 -0.1)">
						<g transform="translate(0 0.684375)">
							<path id="DejaVuSans-49" d="M12.4,9h16.1v55.6L11,61.1v9l17.4,3.5h9.9V9h16.1V0.7h-42V9z"/>
						</g>
						<g transform="translate(63.623047 0.684375)">
							<path id="DejaVuSans-48" d="M95.4,67.1c-5.1,0-8.9-2.5-11.5-7.5c-2.6-5-3.8-12.5-3.8-22.5c0-10,1.3-17.5,3.8-22.5
								c2.6-5,6.4-7.5,11.5-7.5c5.1,0,8.9,2.5,11.5,7.5c2.6,5,3.8,12.5,3.8,22.5c0,10-1.3,17.5-3.8,22.5
								C104.4,64.6,100.5,67.1,95.4,67.1z M95.4,74.9c8.2,0,14.4-3.2,18.7-9.7c4.3-6.5,6.5-15.8,6.5-28.1c0-12.3-2.2-21.6-6.5-28.1
								c-4.3-6.5-10.6-9.7-18.7-9.7c-8.2,0-14.4,3.2-18.7,9.7c-4.3,6.5-6.5,15.8-6.5,28.1c0,12.3,2.2,21.7,6.5,28.1
								C81,71.7,87.2,74.9,95.4,74.9z"/>
						</g>
						<g transform="translate(128.203125 38.965625)scale(0.7)">
							<path id="DejaVuSans-52" d="M154.7,84l-17.4-27.2h17.4V84z M152.8,90h8.7V56.7h7.3V51h-7.3V39h-6.9v12h-23v6.7L152.8,90z"/>
						</g>
					</g>
				</g>
			</g>
			<g id="ytick_2">
				<g id="line2d_7">
					<g>
						<g>
							<path id="m53409c29d4_1_" class="st6" d="M54,137.9h-3.5"/>
						</g>
					</g>
				</g>
				<g id="text_7">
					<g transform="translate(29.4 141.675782)scale(0.1 -0.1)">
						<g transform="translate(0 0.684375)">
							<path id="DejaVuSans-49_1_" d="M12.4,9h16.1v55.6L11,61.1v9l17.4,3.5h9.9V9h16.1V0.7h-42V9z"/>
						</g>
						<g transform="translate(63.623047 0.684375)">
							<path id="DejaVuSans-48_1_" d="M95.4,67.1c-5.1,0-8.9-2.5-11.5-7.5c-2.6-5-3.8-12.5-3.8-22.5c0-10,1.3-17.5,3.8-22.5
								c2.6-5,6.4-7.5,11.5-7.5c5.1,0,8.9,2.5,11.5,7.5c2.6,5,3.8,12.5,3.8,22.5c0,10-1.3,17.5-3.8,22.5
								C104.4,64.6,100.5,67.1,95.4,67.1z M95.4,74.9c8.2,0,14.4-3.2,18.7-9.7c4.3-6.5,6.5-15.8,6.5-28.1c0-12.3-2.2-21.6-6.5-28.1
								c-4.3-6.5-10.6-9.7-18.7-9.7c-8.2,0-14.4,3.2-18.7,9.7c-4.3,6.5-6.5,15.8-6.5,28.1c0,12.3,2.2,21.7,6.5,28.1
								C81,71.7,87.2,74.9,95.4,74.9z"/>
						</g>
						<g transform="translate(128.203125 38.965625)scale(0.7)">
							<path id="DejaVuSans-53" d="M135.8,90h27.1v-5.8h-20.8V71.7c1,0.3,2,0.6,3,0.8c1,0.2,2,0.3,3,0.3c5.7,0,10.2-1.6,13.5-4.7
								c3.3-3.1,5-7.3,5-12.7c0-5.5-1.7-9.8-5.1-12.8c-3.4-3-8.2-4.6-14.5-4.6c-2.1,0-4.3,0.2-6.6,0.5c-2.2,0.4-4.5,0.9-6.9,1.6v6.9
								c2-1.1,4.2-1.9,6.4-2.5s4.5-0.8,6.9-0.8c3.9,0,7.1,1,9.4,3.1c2.3,2.1,3.5,4.9,3.5,8.4c0,3.6-1.2,6.4-3.5,8.4
								c-2.3,2.1-5.4,3.1-9.4,3.1c-1.8,0-3.7-0.2-5.5-0.6c-1.8-0.4-3.7-1-5.6-1.9V90z"/>
						</g>
					</g>
				</g>
			</g>
			<g id="ytick_3">
				<g id="line2d_8">
					<g>
						<g>
							<path id="m53409c29d4_2_" class="st6" d="M54,65.8h-3.5"/>
						</g>
					</g>
				</g>
				<g id="text_8">
					<g transform="translate(29.4 69.635575)scale(0.1 -0.1)">
						<g transform="translate(0 0.765625)">
							<path id="DejaVuSans-49_2_" d="M12.4,9.1h16.1v55.6L11,61.2v9l17.4,3.5h9.9V9.1h16.1V0.8h-42V9.1z"/>
						</g>
						<g transform="translate(63.623047 0.765625)">
							<path id="DejaVuSans-48_2_" d="M95.4,67.2c-5.1,0-8.9-2.5-11.5-7.5c-2.6-5-3.8-12.5-3.8-22.5c0-10,1.3-17.5,3.8-22.5
								c2.6-5,6.4-7.5,11.5-7.5c5.1,0,8.9,2.5,11.5,7.5c2.6,5,3.8,12.5,3.8,22.5c0,10-1.3,17.5-3.8,22.5
								C104.4,64.7,100.5,67.2,95.4,67.2z M95.4,75c8.2,0,14.4-3.2,18.7-9.7c4.3-6.5,6.5-15.8,6.5-28.1c0-12.3-2.2-21.6-6.5-28.1
								c-4.3-6.5-10.6-9.7-18.7-9.7C87.2-0.7,81,2.6,76.7,9c-4.3,6.5-6.5,15.8-6.5,28.1c0,12.3,2.2,21.7,6.5,28.1
								C81,71.8,87.2,75,95.4,75z"/>
						</g>
						<g transform="translate(128.203125 39.046875)scale(0.7)">
							<path id="DejaVuSans-54" d="M151.3,67.3c-3.1,0-5.6-1.1-7.4-3.2c-1.8-2.1-2.7-5-2.7-8.7c0-3.7,0.9-6.6,2.7-8.7
								c1.8-2.1,4.3-3.2,7.4-3.2c3.1,0,5.6,1.1,7.4,3.2c1.8,2.1,2.7,5,2.7,8.7c0,3.7-0.9,6.6-2.7,8.7
								C156.9,66.2,154.4,67.3,151.3,67.3z M165,89v-6.3c-1.7,0.8-3.5,1.4-5.2,1.9c-1.8,0.4-3.5,0.7-5.2,0.7c-4.6,0-8-1.5-10.4-4.6
								c-2.4-3.1-3.8-7.7-4.1-13.9c1.3,2,3,3.5,5.1,4.6c2,1.1,4.3,1.6,6.7,1.6c5.1,0,9.2-1.6,12.2-4.7c3-3.1,4.5-7.3,4.5-12.7
								c0-5.2-1.5-9.5-4.6-12.6c-3.1-3.2-7.2-4.7-12.4-4.7c-5.9,0-10.4,2.3-13.5,6.8c-3.1,4.5-4.7,11.1-4.7,19.7
								c0,8.1,1.9,14.5,5.7,19.3c3.8,4.8,9,7.2,15.4,7.2c1.7,0,3.5-0.2,5.2-0.5C161.3,90.1,163.1,89.6,165,89z"/>
						</g>
					</g>
				</g>
			</g>
			<g id="ytick_4">
				<g id="line2d_9">
					<g>
						<g>
							<path id="ma9a1a0a757" class="st9" d="M54,247.6h-2"/>
						</g>
					</g>
				</g>
			</g>
			<g id="ytick_5">
				<g id="line2d_10">
					<g>
						<g>
							<path id="ma9a1a0a757_1_" class="st9" d="M54,238.6h-2"/>
						</g>
					</g>
				</g>
			</g>
			<g id="ytick_6">
				<g id="line2d_11">
					<g>
						<g>
							<path id="ma9a1a0a757_2_" class="st9" d="M54,231.6h-2"/>
						</g>
					</g>
				</g>
			</g>
			<g id="ytick_7">
				<g id="line2d_12">
					<g>
						<g>
							<path id="ma9a1a0a757_3_" class="st9" d="M54,225.9h-2"/>
						</g>
					</g>
				</g>
			</g>
			<g id="ytick_8">
				<g id="line2d_13">
					<g>
						<g>
							<path id="ma9a1a0a757_4_" class="st9" d="M54,221.1h-2"/>
						</g>
					</g>
				</g>
			</g>
			<g id="ytick_9">
				<g id="line2d_14">
					<g>
						<g>
							<path id="ma9a1a0a757_5_" class="st9" d="M54,216.9h-2"/>
						</g>
					</g>
				</g>
			</g>
			<g id="ytick_10">
				<g id="line2d_15">
					<g>
						<g>
							<path id="ma9a1a0a757_6_" class="st9" d="M54,213.2h-2"/>
						</g>
					</g>
				</g>
			</g>
			<g id="ytick_11">
				<g id="line2d_16">
					<g>
						<g>
							<path id="ma9a1a0a757_7_" class="st9" d="M54,188.2h-2"/>
						</g>
					</g>
				</g>
			</g>
			<g id="ytick_12">
				<g id="line2d_17">
					<g>
						<g>
							<path id="ma9a1a0a757_8_" class="st9" d="M54,175.5h-2"/>
						</g>
					</g>
				</g>
			</g>
			<g id="ytick_13">
				<g id="line2d_18">
					<g>
						<g>
							<path id="ma9a1a0a757_9_" class="st9" d="M54,166.5h-2"/>
						</g>
					</g>
				</g>
			</g>
			<g id="ytick_14">
				<g id="line2d_19">
					<g>
						<g>
							<path id="ma9a1a0a757_10_" class="st9" d="M54,159.6h-2"/>
						</g>
					</g>
				</g>
			</g>
			<g id="ytick_15">
				<g id="line2d_20">
					<g>
						<g>
							<path id="ma9a1a0a757_11_" class="st9" d="M54,153.9h-2"/>
						</g>
					</g>
				</g>
			</g>
			<g id="ytick_16">
				<g id="line2d_21">
					<g>
						<g>
							<path id="ma9a1a0a757_12_" class="st9" d="M54,149h-2"/>
						</g>
					</g>
				</g>
			</g>
			<g id="ytick_17">
				<g id="line2d_22">
					<g>
						<g>
							<path id="ma9a1a0a757_13_" class="st9" d="M54,144.9h-2"/>
						</g>
					</g>
				</g>
			</g>
			<g id="ytick_18">
				<g id="line2d_23">
					<g>
						<g>
							<path id="ma9a1a0a757_14_" class="st9" d="M54,141.2h-2"/>
						</g>
					</g>
				</g>
			</g>
			<g id="ytick_19">
				<g id="line2d_24">
					<g>
						<g>
							<path id="ma9a1a0a757_15_" class="st9" d="M54,116.2h-2"/>
						</g>
					</g>
				</g>
			</g>
			<g id="ytick_20">
				<g id="line2d_25">
					<g>
						<g>
							<path id="ma9a1a0a757_16_" class="st9" d="M54,103.5h-2"/>
						</g>
					</g>
				</g>
			</g>
			<g id="ytick_21">
				<g id="line2d_26">
					<g>
						<g>
							<path id="ma9a1a0a757_17_" class="st9" d="M54,94.5h-2"/>
						</g>
					</g>
				</g>
			</g>
			<g id="ytick_22">
				<g id="line2d_27">
					<g>
						<g>
							<path id="ma9a1a0a757_18_" class="st9" d="M54,87.5h-2"/>
						</g>
					</g>
				</g>
			</g>
			<g id="ytick_23">
				<g id="line2d_28">
					<g>
						<g>
							<path id="ma9a1a0a757_19_" class="st9" d="M54,81.8h-2"/>
						</g>
					</g>
				</g>
			</g>
			<g id="ytick_24">
				<g id="line2d_29">
					<g>
						<g>
							<path id="ma9a1a0a757_20_" class="st9" d="M54,77h-2"/>
						</g>
					</g>
				</g>
			</g>
			<g id="ytick_25">
				<g id="line2d_30">
					<g>
						<g>
							<path id="ma9a1a0a757_21_" class="st9" d="M54,72.8h-2"/>
						</g>
					</g>
				</g>
			</g>
			<g id="ytick_26">
				<g id="line2d_31">
					<g>
						<g>
							<path id="ma9a1a0a757_22_" class="st9" d="M54,69.1h-2"/>
						</g>
					</g>
				</g>
			</g>
			<g id="ytick_27">
				<g id="line2d_32">
					<g>
						<g>
							<path id="ma9a1a0a757_23_" class="st9" d="M54,44.2h-2"/>
						</g>
					</g>
				</g>
			</g>
			<g id="text_9">
				<g transform="translate(23.320312 157.38625)rotate(-90)scale(0.1 -0.1)">
					<g>
						<path id="DejaVuSans-99" d="M48.8,52.6v-8.4c-2.5,1.4-5.1,2.5-7.6,3.2s-5.1,1-7.7,1c-5.8,0-10.4-1.8-13.6-5.5
							C16.6,39.2,15,34,15,27.3s1.6-11.9,4.8-15.6C23,8,27.6,6.2,33.4,6.2c2.6,0,5.2,0.3,7.7,1s5.1,1.8,7.6,3.2V2.1
							c-2.5-1.2-5.1-2-7.8-2.6c-2.7-0.6-5.5-0.9-8.6-0.9c-8.2,0-14.8,2.6-19.6,7.8c-4.8,5.2-7.3,12.2-7.3,21c0,8.9,2.4,15.9,7.3,21
							C17.8,53.4,24.5,56,33,56c2.8,0,5.5-0.3,8.1-0.9C43.7,54.6,46.3,53.7,48.8,52.6z"/>
					</g>
					<g>
						<path id="DejaVuSans-111_2_" d="M85.6,48.4c-4.8,0-8.6-1.9-11.4-5.6C71.4,39,70,33.8,70,27.3s1.4-11.7,4.2-15.5
							c2.8-3.8,6.6-5.6,11.5-5.6c4.8,0,8.6,1.9,11.4,5.7c2.8,3.8,4.2,8.9,4.2,15.4c0,6.5-1.4,11.6-4.2,15.4
							C94.2,46.5,90.4,48.4,85.6,48.4z M85.6,56c7.8,0,13.9-2.5,18.4-7.6c4.5-5.1,6.7-12.1,6.7-21.1c0-8.9-2.2-16-6.7-21.1
							c-4.5-5.1-10.6-7.6-18.4-7.6c-7.8,0-14,2.5-18.4,7.6c-4.4,5.1-6.7,12.1-6.7,21.1c0,9,2.2,16,6.7,21.1
							C71.6,53.5,77.7,56,85.6,56z"/>
					</g>
					<g>
						<path id="DejaVuSans-117_2_" d="M124.7,21.6v33.1h9V21.9c0-5.2,1-9.1,3-11.7c2-2.6,5.1-3.9,9.1-3.9c4.8,0,8.7,1.5,11.5,4.6
							c2.8,3.1,4.2,7.3,4.2,12.7v31h9V0h-9v8.4c-2.2-3.3-4.7-5.8-7.6-7.4c-2.9-1.6-6.2-2.4-10-2.4c-6.3,0-11.1,2-14.3,5.9
							C126.3,8.3,124.7,14.1,124.7,21.6z"/>
					</g>
					<g>
						<path id="DejaVuSans-110_7_" d="M234.4,33V0h-9v32.7c0,5.2-1,9-3,11.6c-2,2.6-5,3.9-9.1,3.9c-4.9,0-8.7-1.5-11.5-4.6
							c-2.8-3.1-4.2-7.3-4.2-12.6V0h-9v54.7h9v-8.5c2.2,3.3,4.7,5.8,7.6,7.4c2.9,1.6,6.3,2.4,10.1,2.4c6.3,0,11-1.9,14.2-5.8
							C232.8,46.3,234.4,40.6,234.4,33z"/>
					</g>
					<g>
						<path id="DejaVuSans-116_3_" d="M261.2,70.2V54.7h18.5v-7h-18.5V18c0-4.5,0.6-7.3,1.8-8.6s3.7-1.9,7.5-1.9h9.2V0h-9.2
							c-6.9,0-11.7,1.3-14.4,3.9c-2.6,2.6-4,7.3-4,14.1v29.7h-6.6v7h6.6v15.5H261.2z"/>
					</g>
				</g>
			</g>
		</g>
		<g id="patch_8">
			<path class="st10" d="M54,252V34.6"/>
		</g>
		<g id="patch_9">
			<path class="st10" d="M388.8,252V34.6"/>
		</g>
		<g id="patch_10">
			<path class="st10" d="M54,252h334.8"/>
		</g>
		<g id="patch_11">
			<path class="st10" d="M54,34.6h334.8"/>
		</g>
	</g>
</g>
</svg>
